<?xml version="1.0" encoding="UTF-8"?>
<svg version="1.1" xmlns="http://www.w3.org/2000/svg" width="398" height="404">
<path d="M0 0 C6.37349864 5.72954411 10.50402203 15.40884583 13.0625 23.375 C13.91666504 23.25906494 14.77083008 23.14312988 15.65087891 23.02368164 C45.92673685 18.95832184 73.88017346 17.65620464 104.23852539 22.40917969 C108.56445319 23.07914522 112.66684084 23.53173339 117.0625 23.375 C117.41441406 22.385 117.76632813 21.395 118.12890625 20.375 C124.4507496 3.22811216 124.4507496 3.22811216 132.3828125 -0.8046875 C139.16401513 -2.88056586 147.72634744 -2.69598686 154.23046875 0.2890625 C168.85424526 8.95731382 172.29802754 26.18895194 177.30981445 41.34057617 C177.88864355 43.34041565 177.88864355 43.34041565 179.0625 44.375 C180.50343815 44.32081378 181.94171184 44.1930294 183.375 44.03515625 C184.27726318 43.94129639 185.17952637 43.84743652 186.10913086 43.75073242 C187.08374268 43.64736572 188.05835449 43.54399902 189.0625 43.4375 C215.13520083 40.91692096 239.72779757 42.96586358 261.1640625 59.8125 C276.31920498 72.69556443 286.25870963 90.74722125 288.29443359 110.64160156 C289.32946933 126.04632897 285.97910632 139.20179094 276.390625 151.5234375 C266.27811275 162.80277808 253.43940945 165.52213249 239.0625 166.375 C239.12308594 167.03918945 239.18367188 167.70337891 239.24609375 168.38769531 C239.52373665 171.46632794 239.79314625 174.5456315 240.0625 177.625 C240.15789062 178.66914063 240.25328125 179.71328125 240.3515625 180.7890625 C242.49357893 205.57525266 239.97006403 230.92036918 223.93359375 251.046875 C221.72358458 253.58358118 219.43504777 255.99030608 217.0625 258.375 C216.41023438 259.06207031 215.75796875 259.74914062 215.0859375 260.45703125 C200.55074637 274.68356002 180.82879297 279.8142541 161.0625 280.375 C161.29066406 281.13683594 161.51882813 281.89867187 161.75390625 282.68359375 C163.97017154 290.64425964 165.29254213 297.00068659 161.4375 304.5625 C157.91059529 308.73909768 154.32144763 312.62201746 149.0625 314.375 C133.24434309 315.38055521 118.58281271 312.43745422 103.55078125 307.75390625 C102.5158252 307.44187256 102.5158252 307.44187256 101.45996094 307.12353516 C99.67053335 306.56484015 97.89423792 305.96375776 96.12597656 305.34130859 C86.58525148 302.21359062 77.76997248 301.75607485 67.79541016 301.85351562 C65.19728686 301.87491937 62.60194505 301.85362963 60.00390625 301.828125 C46.97099495 301.8063991 35.1645375 303.43639974 23.1875 308.9375 C15.47977588 312.34567733 7.36251076 313.33444095 -0.9375 314.375 C-2.17886719 314.53097656 -3.42023438 314.68695313 -4.69921875 314.84765625 C-13.76685184 315.76389792 -20.54673466 315.28761228 -27.9375 309.375 C-31.19004924 305.94663729 -33.81503292 303.13184593 -34.15234375 298.29296875 C-33.90453284 293.77379887 -32.86637641 289.97483535 -31.5 285.6875 C-31.0424385 284.20459059 -30.58539003 282.72152277 -30.12890625 281.23828125 C-29.92467041 280.59157471 -29.72043457 279.94486816 -29.51000977 279.27856445 C-29.22661743 278.33630005 -29.22661743 278.33630005 -28.9375 277.375 C-28.72504639 276.68809082 -28.51259277 276.00118164 -28.29370117 275.29345703 C-27.73289575 272.27302589 -29.1972058 270.55261149 -30.6875 267.9375 C-39.65686838 250.52023815 -38.89290234 229.76337707 -34.36108398 211.05834961 C-33.10907743 205.87035092 -32.05453656 200.71216162 -32.9375 195.375 C-34.48567275 193.26457402 -34.48567275 193.26457402 -36.875 192.1875 C-37.69355469 191.72085938 -38.51210938 191.25421875 -39.35546875 190.7734375 C-40.20753906 190.31195313 -41.05960938 189.85046875 -41.9375 189.375 C-47.12148634 186.11935641 -51.80979009 182.94894881 -55.9375 178.375 C-56.41832031 177.88644531 -56.89914063 177.39789063 -57.39453125 176.89453125 C-66.52927011 167.15851844 -69.44031024 154.63865379 -69.18359375 141.63671875 C-68.38861321 131.10007191 -64.12577646 120.54718903 -57.4765625 112.3359375 C-53.78261794 107.26630747 -52.67549452 101.24868644 -51.1875 95.25 C-50.88457031 94.08339844 -50.58164062 92.91679687 -50.26953125 91.71484375 C-49.46838965 88.60641434 -48.68078375 85.49775705 -47.9375 82.375 C-47.74164307 81.59310303 -47.54578613 80.81120605 -47.34399414 80.00561523 C-46.79376871 76.44484704 -46.89379913 72.94435981 -46.98046875 69.35546875 C-47.0028974 67.75847652 -47.02434827 66.16147033 -47.04492188 64.56445312 C-47.08160306 62.08106373 -47.12412926 59.59841534 -47.18432617 57.11547852 C-47.62182313 38.13116735 -44.42910035 21.4381825 -32.0625 6.3125 C-24.35589552 -1.67301017 -10.34261835 -6.01536194 0 0 Z " fill="#BF7E57" transform="translate(100.9375,59.625)"/>
</svg>
