<svg width="28" height="28" viewBox="0 0 28 28" fill="none" xmlns="http://www.w3.org/2000/svg">
<path d="M14.0002 17.5C18.5105 17.5 22.1668 13.8437 22.1668 9.33334C22.1668 4.82301 18.5105 1.16667 14.0002 1.16667C9.48984 1.16667 5.8335 4.82301 5.8335 9.33334C5.8335 13.8437 9.48984 17.5 14.0002 17.5Z" fill="#FFB100"/>
<path d="M9.5785 16.205L8.16683 26.8333L14.0002 23.3333L19.8335 26.8333L18.4218 16.1933" fill="#FFB100"/>
<path d="M9.5785 16.205L8.16683 26.8333L14.0002 23.3333L19.8335 26.8333L18.4218 16.1933M22.1668 9.33334C22.1668 13.8437 18.5105 17.5 14.0002 17.5C9.48984 17.5 5.8335 13.8437 5.8335 9.33334C5.8335 4.82301 9.48984 1.16667 14.0002 1.16667C18.5105 1.16667 22.1668 4.82301 22.1668 9.33334Z" stroke="#FFC800" stroke-width="2.11321" stroke-linecap="round" stroke-linejoin="round"/>
</svg>
