<svg width="120" height="41" viewBox="0 0 120 41" fill="none" xmlns="http://www.w3.org/2000/svg">
<path d="M2.11994 30.6C1.34661 30.6 0.799942 30.44 0.479942 30.12C0.159942 29.7733 -5.84722e-05 29.2267 -5.84722e-05 28.48V8.20001C-5.84722e-05 5.82667 0.533275 3.90667 1.59994 2.44C2.69328 0.946671 3.89328 0.200004 5.19994 0.200004C5.99994 0.200004 6.39994 0.680004 6.39994 1.64V28.48C6.39994 29.2267 6.23994 29.7733 5.91994 30.12C5.59994 30.44 5.05327 30.6 4.27994 30.6H2.11994ZM29.6434 28.28C27.4834 30.36 24.7767 31.4 21.5234 31.4C18.27 31.4 15.5634 30.36 13.4034 28.28C11.2434 26.2 10.1634 23.5733 10.1634 20.4C10.1634 17.2 11.2434 14.5733 13.4034 12.52C15.5634 10.44 18.27 9.4 21.5234 9.4C24.7767 9.4 27.4834 10.44 29.6434 12.52C31.8034 14.5733 32.8834 17.2 32.8834 20.4C32.8834 23.5733 31.8034 26.2 29.6434 28.28ZM17.9634 24.2C18.8434 25.16 20.03 25.64 21.5234 25.64C23.0167 25.64 24.2034 25.16 25.0834 24.2C25.9634 23.2133 26.4034 21.9467 26.4034 20.4C26.4034 18.8533 25.9634 17.6 25.0834 16.64C24.2034 15.6533 23.0167 15.16 21.5234 15.16C20.03 15.16 18.8434 15.6533 17.9634 16.64C17.0834 17.6 16.6434 18.8533 16.6434 20.4C16.6434 21.9467 17.0834 23.2133 17.9634 24.2ZM46.0806 40.8C42.7206 40.8 40.0139 39.96 37.9606 38.28C35.9072 36.6 34.8806 34.3733 34.8806 31.6C34.8806 30.08 35.2672 28.64 36.0406 27.28C36.8139 25.8933 37.8539 24.8667 39.1606 24.2C37.0539 22.4667 36.0006 20.4133 36.0006 18.04C36.0006 15.5867 36.8939 13.5733 38.6806 12C40.4672 10.4 42.8272 9.6 45.7606 9.6C47.0672 9.6 48.3472 9.70667 49.6006 9.92001C50.8806 10.1067 51.8006 10.2 52.3606 10.2C53.6406 10.2 54.9472 9.84 56.2806 9.12001C56.7872 8.85334 57.2139 8.72 57.5606 8.72C58.3872 8.72 58.8006 9.32 58.8006 10.52C58.8006 12.92 57.7206 14.5067 55.5606 15.28C55.9606 16.1067 56.1606 17.0267 56.1606 18.04C56.1606 20.3333 55.1072 22.3867 53.0006 24.2C54.3072 24.84 55.3472 25.8533 56.1206 27.24C56.8939 28.6 57.2806 30.0533 57.2806 31.6C57.2806 34.3733 56.2539 36.6 54.2006 38.28C52.1739 39.96 49.4672 40.8 46.0806 40.8ZM43.2806 21.08C44.0539 21.8 44.9872 22.16 46.0806 22.16C47.1739 22.16 48.0939 21.8 48.8406 21.08C49.6139 20.3333 50.0006 19.44 50.0006 18.4C50.0006 17.28 49.6406 16.3733 48.9206 15.68C48.2006 14.9867 47.2539 14.64 46.0806 14.64C44.9072 14.64 43.9606 14.9867 43.2406 15.68C42.5206 16.3733 42.1606 17.28 42.1606 18.4C42.1606 19.44 42.5339 20.3333 43.2806 21.08ZM46.0806 35.6C47.4406 35.6 48.5872 35.1867 49.5206 34.36C50.4806 33.56 50.9606 32.5733 50.9606 31.4C50.9606 30.1467 50.5072 29.1333 49.6006 28.36C48.7206 27.5867 47.5472 27.2 46.0806 27.2C44.6139 27.2 43.4272 27.5867 42.5206 28.36C41.6406 29.1333 41.2006 30.1467 41.2006 31.4C41.2006 32.5733 41.6672 33.56 42.6006 34.36C43.5339 35.1867 44.6939 35.6 46.0806 35.6ZM71.0024 40.8C67.6424 40.8 64.9358 39.96 62.8824 38.28C60.8291 36.6 59.8024 34.3733 59.8024 31.6C59.8024 30.08 60.1891 28.64 60.9624 27.28C61.7358 25.8933 62.7758 24.8667 64.0824 24.2C61.9758 22.4667 60.9224 20.4133 60.9224 18.04C60.9224 15.5867 61.8158 13.5733 63.6024 12C65.3891 10.4 67.7491 9.6 70.6824 9.6C71.9891 9.6 73.2691 9.70667 74.5224 9.92001C75.8024 10.1067 76.7224 10.2 77.2824 10.2C78.5624 10.2 79.8691 9.84 81.2024 9.12001C81.7091 8.85334 82.1358 8.72 82.4824 8.72C83.3091 8.72 83.7224 9.32 83.7224 10.52C83.7224 12.92 82.6424 14.5067 80.4824 15.28C80.8824 16.1067 81.0824 17.0267 81.0824 18.04C81.0824 20.3333 80.0291 22.3867 77.9224 24.2C79.2291 24.84 80.2691 25.8533 81.0424 27.24C81.8158 28.6 82.2024 30.0533 82.2024 31.6C82.2024 34.3733 81.1758 36.6 79.1224 38.28C77.0958 39.96 74.3891 40.8 71.0024 40.8ZM68.2024 21.08C68.9758 21.8 69.9091 22.16 71.0024 22.16C72.0958 22.16 73.0158 21.8 73.7624 21.08C74.5358 20.3333 74.9224 19.44 74.9224 18.4C74.9224 17.28 74.5624 16.3733 73.8424 15.68C73.1224 14.9867 72.1758 14.64 71.0024 14.64C69.8291 14.64 68.8824 14.9867 68.1624 15.68C67.4424 16.3733 67.0824 17.28 67.0824 18.4C67.0824 19.44 67.4558 20.3333 68.2024 21.08ZM71.0024 35.6C72.3624 35.6 73.5091 35.1867 74.4424 34.36C75.4024 33.56 75.8824 32.5733 75.8824 31.4C75.8824 30.1467 75.4291 29.1333 74.5224 28.36C73.6424 27.5867 72.4691 27.2 71.0024 27.2C69.5358 27.2 68.3491 27.5867 67.4424 28.36C66.5624 29.1333 66.1224 30.1467 66.1224 31.4C66.1224 32.5733 66.5891 33.56 67.5224 34.36C68.4558 35.1867 69.6158 35.6 71.0024 35.6ZM89.6843 6.96001C88.671 6.96001 87.8043 6.62667 87.0843 5.96C86.391 5.26667 86.0443 4.44001 86.0443 3.48C86.0443 2.49334 86.391 1.66667 87.0843 1.00001C87.8043 0.333338 88.671 4.29153e-06 89.6843 4.29153e-06C90.671 4.29153e-06 91.5243 0.346671 92.2443 1.04001C92.9643 1.70667 93.3243 2.52 93.3243 3.48C93.3243 4.44001 92.9643 5.26667 92.2443 5.96C91.5243 6.62667 90.671 6.96001 89.6843 6.96001ZM88.6043 30.6C87.8576 30.6 87.311 30.44 86.9643 30.12C86.6443 29.8 86.4843 29.2533 86.4843 28.48V12.32C86.4843 11.5467 86.6443 11 86.9643 10.68C87.311 10.36 87.8576 10.2 88.6043 10.2H90.7643C91.511 10.2 92.0443 10.36 92.3643 10.68C92.711 11 92.8843 11.5467 92.8843 12.32V28.48C92.8843 29.2533 92.711 29.8 92.3643 30.12C92.0443 30.44 91.511 30.6 90.7643 30.6H88.6043ZM117.168 12.36C118.794 14.2533 119.608 17.0667 119.608 20.8V28.48C119.608 29.2533 119.434 29.8 119.088 30.12C118.768 30.44 118.234 30.6 117.488 30.6H115.328C114.581 30.6 114.034 30.44 113.688 30.12C113.368 29.8 113.208 29.2533 113.208 28.48V21C113.208 19.1067 112.874 17.7333 112.208 16.88C111.488 15.9467 110.408 15.48 108.968 15.48C107.528 15.48 106.408 15.9467 105.608 16.88C104.808 17.8133 104.408 19.1733 104.408 20.96V28.48C104.408 29.2267 104.248 29.7733 103.928 30.12C103.608 30.44 103.061 30.6 102.288 30.6H100.128C99.3544 30.6 98.8078 30.44 98.4878 30.12C98.1678 29.7733 98.0078 29.2267 98.0078 28.48V11.24C98.0078 10.28 98.4211 9.8 99.2478 9.8C99.8344 9.8 100.474 10.04 101.168 10.52C101.861 10.9733 102.474 11.6267 103.008 12.48C103.834 11.4933 104.861 10.7333 106.088 10.2C107.341 9.66667 108.621 9.4 109.928 9.4C113.021 9.4 115.434 10.3867 117.168 12.36Z" fill="#C07F58"/>
</svg>
