<svg version="1.1" id="Layer_1" xmlns="http://www.w3.org/2000/svg" 
xmlns:xlink="http://www.w3.org/1999/xlink" x="0px" y="0px"
width="100%" viewBox="0 0 199 202" xml:space="preserve">

<path fill="#BF7E57" opacity="1.000000" stroke="none" 
d="
M23.287169,84.889908 
	C25.220877,76.672218 28.807184,69.192574 27.558119,60.596008 
	C26.371735,52.430847 27.625195,44.361111 32.031185,37.057137 
	C34.436317,33.070068 37.455360,29.925274 42.308414,29.234890 
	C48.832626,28.306770 51.382896,29.979548 55.010609,37.560047 
	C55.718060,39.038338 56.144661,40.651035 56.650406,42.061211 
	C65.503029,41.089130 74.145653,39.367138 82.779663,39.409302 
	C91.423737,39.451519 100.059204,41.256088 109.172798,42.344845 
	C109.492813,41.402176 109.906647,39.823273 110.553513,38.346443 
	C112.346916,34.251991 113.928459,29.798349 119.292732,29.227047 
	C125.766304,28.537600 130.867584,31.197380 133.635025,36.955730 
	C136.037567,41.954857 137.497330,47.407082 139.326126,52.525806 
	C144.601013,52.095432 150.141266,51.264103 155.681900,51.261410 
	C173.361526,51.252819 191.590912,63.251209 194.190979,85.137871 
	C195.387634,95.210945 191.141220,107.171783 178.903656,111.374275 
	C176.172424,112.312218 173.089737,112.226784 169.532318,112.696587 
	C169.673294,114.544006 169.714828,116.450005 169.977692,118.324989 
	C173.132080,140.825195 165.483749,161.106094 142.000595,168.355621 
	C138.451035,169.451431 134.486069,169.201706 130.232788,169.621826 
	C130.568497,170.777954 130.794312,171.994644 131.265320,173.107544 
	C134.707901,181.241577 127.259674,187.457657 121.459152,187.002747 
	C114.800278,186.480530 107.970749,185.342834 101.740707,183.046921 
	C96.949493,181.281250 92.438148,179.829865 87.355705,180.163361 
	C85.199532,180.304855 83.026253,180.174393 80.860893,180.189392 
	C74.778656,180.231522 69.082062,180.397308 63.138435,183.421127 
	C57.671249,186.202560 50.746738,186.441956 44.392376,187.048843 
	C39.807262,187.486740 33.563499,182.855026 33.719677,179.036469 
	C33.878403,175.155823 35.782795,171.346573 37.181084,166.635651 
	C30.480896,156.592331 31.199110,144.532608 34.423454,132.404114 
	C35.435123,128.598679 35.299286,126.823845 31.258760,124.953308 
	C15.060886,117.454628 11.232010,98.137299 23.287169,84.889908 
z"/>

</svg>